<svg t="1706177956193" class="icon" viewBox="0 0 1024 1024" version="1.1" xmlns="http://www.w3.org/2000/svg" p-id="8405" width="200" height="200"><path d="M190.6688 589.568h-17.2544c-24.2688 0-43.9296-21.4528-43.9296-47.9232v-146.432c0-26.5216 19.6608-47.9744 43.9296-47.9744h17.2544zM885.76 401.7664h-41.6768v-102.4a36.9152 36.9152 0 0 0-36.6592-37.0688h-125.3376V256a42.9568 42.9568 0 0 0-42.9056-42.9568H401.3056A42.9568 42.9568 0 0 0 358.4 256v6.5536H240.0256a36.9664 36.9664 0 0 0-36.7104 37.0688v343.8592a36.9152 36.9152 0 0 0 36.7104 37.0176H358.4v16.4864a42.496 42.496 0 0 0 1.024 9.2672h-66.56v114.9952h462.336v-115.0464H680.96a42.496 42.496 0 0 0 1.024-9.2672v-16.4864h125.44a36.864 36.864 0 0 0 36.6592-37.0176v-108.4416H885.76a20.48 20.48 0 0 0 20.48-20.48v-92.16a20.48 20.48 0 0 0-20.48-20.5824zM358.4 639.488H244.2752V303.4624H358.4zM399.36 256a1.9968 1.9968 0 0 1 1.9968-1.9968h237.8752a1.9968 1.9968 0 0 1 1.9456 1.9968v440.9856a1.9456 1.9456 0 0 1-1.9456 1.9968H401.3056a1.9456 1.9456 0 0 1-1.9968-1.9968z m314.9312 491.2128v33.0752H333.824v-33.0752z m88.8832-107.52h-121.088V303.4624h121.0368zM865.28 494.0288h-20.1216v-51.2H865.28z" fill="#1296db" p-id="8406"></path><path d="M508.6208 581.888a20.1728 20.1728 0 0 1-11.5712-3.584 20.48 20.48 0 0 1-5.12-28.4672L538.6752 481.28H469.2992a20.48 20.48 0 0 1-16.7936-32.256L523.3664 348.16a20.48 20.48 0 1 1 33.536 23.552L508.672 440.32h68.8128a20.48 20.48 0 0 1 16.9472 32.0512l-68.9152 100.5568a20.48 20.48 0 0 1-16.896 8.96z" fill="#1296db" p-id="8407"></path></svg>